HIERARCHY
ROOT root
{
	OFFSET 0.000000 0.000000 0.000000
	CHANNELS 6 Xposition Yposition Zposition Zrotation Yrotation Xrotation
	JOINT lhip
	{
		OFFSET 0.058581 -0.082280 -0.017664
		CHANNELS 3 Zrotation Yrotation Xrotation
		JOINT lknee
		{
			OFFSET 0.043451 -0.386469 0.008037
			CHANNELS 3 Zrotation Yrotation Xrotation
			JOINT lankle
			{
				OFFSET -0.014790 -0.426874 -0.037428
				CHANNELS 3 Zrotation Yrotation Xrotation
				JOINT ltoe
				{
					OFFSET 0.041054 -0.060286 0.122042
					CHANNELS 3 Zrotation Yrotation Xrotation
					End Site
					{
						OFFSET 0.000000 0.000000 0.000000
					}
				}
			}
		}
	}
	JOINT rhip
	{
		OFFSET -0.060310 -0.090513 -0.013543
		CHANNELS 3 Zrotation Yrotation Xrotation
		JOINT rknee
		{
			OFFSET -0.043257 -0.383688 -0.004843
			CHANNELS 3 Zrotation Yrotation Xrotation
			JOINT rankle
			{
				OFFSET 0.019056 -0.420046 -0.034562
				CHANNELS 3 Zrotation Yrotation Xrotation
				JOINT rtoe
				{
					OFFSET -0.034840 -0.062106 0.130323
					CHANNELS 3 Zrotation Yrotation Xrotation
					End Site
					{
						OFFSET 0.000000 0.000000 0.000000
					}
				}
			}
		}
	}
	JOINT lowerback
	{
		OFFSET 0.004439 0.124404 -0.038385
		CHANNELS 3 Zrotation Yrotation Xrotation
		JOINT upperback
		{
			OFFSET 0.004488 0.137956 0.026820
			CHANNELS 3 Zrotation Yrotation Xrotation
			JOINT chest
			{
				OFFSET -0.002265 0.056032 0.002855
				CHANNELS 3 Zrotation Yrotation Xrotation
				JOINT lowerneck
				{
					OFFSET -0.013390 0.211636 -0.033468
					CHANNELS 3 Zrotation Yrotation Xrotation
					JOINT upperneck
					{
						OFFSET 0.010113 0.088937 0.050410
						CHANNELS 3 Zrotation Yrotation Xrotation
						End Site
						{
							OFFSET 0.000000 0.000000 0.000000
						}
					}
				}
				JOINT lclavicle
				{
					OFFSET 0.071702 0.114000 -0.018898
					CHANNELS 3 Zrotation Yrotation Xrotation
					JOINT lshoulder
					{
						OFFSET 0.122921 0.045205 -0.019046
						CHANNELS 3 Zrotation Yrotation Xrotation
						JOINT lelbow
						{
							OFFSET 0.255332 -0.015649 -0.022946
							CHANNELS 3 Zrotation Yrotation Xrotation
							JOINT lwrist
							{
								OFFSET 0.265709 0.012698 -0.007375
								CHANNELS 3 Zrotation Yrotation Xrotation
								End Site
								{
									OFFSET 0.000000 0.000000 0.000000
								}
							}
						}
					}
				}
				JOINT rclavicle
				{
					OFFSET -0.082954 0.112472 -0.023707
					CHANNELS 3 Zrotation Yrotation Xrotation
					JOINT rshoulder
					{
						OFFSET -0.113228 0.046853 -0.008472
						CHANNELS 3 Zrotation Yrotation Xrotation
						JOINT relbow
						{
							OFFSET -0.260127 -0.014369 -0.031269
							CHANNELS 3 Zrotation Yrotation Xrotation
							JOINT rwrist
							{
								OFFSET -0.269108 0.006794 -0.006027
								CHANNELS 3 Zrotation Yrotation Xrotation
								End Site
								{
									OFFSET 0.000000 0.000000 0.000000
								}
							}
						}
					}
				}
			}
		}
	}
}
MOTION
Frames: 16
Frame Time: 0.033333
-0.913562 -0.234024 0.978311 176.525111 2.167152 89.987731 12.184712 3.814017 -3.095369 -2.333312 -0.317876 8.614648 1.029759 4.857588 -11.466171 0.000000 -0.000000 0.000000 -7.344600 -7.307461 -8.804490 -0.903607 -8.250633 19.922183 5.108445 -1.209434 -10.202097 0.000000 -0.000000 0.000000 2.607976 1.609633 8.125895 4.345399 -1.718602 -0.194374 -0.570324 2.544747 -5.386182 1.136288 3.398865 -11.567742 1.346695 -5.678936 7.983631 -24.266712 -18.466602 1.215785 -52.843770 -20.638877 15.970477 37.118813 -74.441379 -25.944632 24.646643 0.566434 -20.541353 21.889857 21.465769 4.534345 54.654853 23.535986 14.534695 -71.998470 61.088376 -51.883418 -15.197281 4.880193 0.821486 
-0.913534 -0.233865 0.978371 176.526596 2.166447 89.989165 12.184328 3.814235 -3.095597 -2.333718 -0.320167 8.611932 1.028215 4.859364 -11.464465 0.000000 -0.000000 0.000000 -7.345144 -7.304576 -8.804351 -0.902134 -8.249608 19.919018 5.111144 -1.216048 -10.197644 0.000000 -0.000000 0.000000 2.608218 1.608182 8.125247 4.343451 -1.718850 -0.197579 -0.569976 2.542161 -5.387216 1.138572 3.397562 -11.569229 1.345916 -5.677918 7.983519 -24.269136 -18.473811 1.212658 -52.838099 -20.649826 15.965175 37.111461 -74.427253 -25.944981 24.661311 0.573871 -20.530336 21.891752 21.477477 4.533775 54.644671 23.550321 14.541463 -71.983282 61.092685 -51.888073 -15.242740 4.849583 0.809937 
-0.913527 -0.233820 0.978385 176.527976 2.166211 89.989847 12.184161 3.814196 -3.095948 -2.333708 -0.320865 8.610896 1.027437 4.859410 -11.463757 0.000000 -0.000000 0.000000 -7.345216 -7.303801 -8.804330 -0.901865 -8.249744 19.918306 5.111363 -1.218590 -10.196569 0.000000 -0.000000 0.000000 2.608567 1.607350 8.125391 4.342366 -1.719566 -0.198807 -0.570182 2.541014 -5.387639 1.139503 3.395790 -11.570146 1.346101 -5.677540 7.983630 -24.270672 -18.478574 1.211394 -52.835083 -20.657094 15.961891 37.108687 -74.415948 -25.945865 24.663417 0.575282 -20.526963 21.893095 21.484374 4.532767 54.637971 23.558907 14.541971 -71.969142 61.090621 -51.880052 -15.254346 4.842368 0.808601 
-0.913033 -0.233025 0.978437 177.050192 2.086500 90.076502 12.081274 3.739328 -3.211001 -2.247944 -0.341095 8.477768 0.819619 4.645556 -11.348863 0.000000 -0.000000 0.000000 -7.392337 -7.345639 -8.747644 -0.912809 -8.408277 19.971335 4.987958 -1.641781 -10.204989 0.000000 -0.000000 0.000000 2.847784 1.353797 8.357079 3.974074 -2.063156 -0.419794 -0.766064 2.288032 -5.470571 1.290245 2.672182 -11.939210 1.517684 -5.527569 8.280499 -24.896139 -20.309388 0.889834 -51.517792 -23.413069 14.684805 35.032618 -69.532302 -25.476005 23.334053 0.121641 -20.022464 22.507306 23.938626 4.319590 51.888924 26.606779 13.621421 -65.415759 58.725862 -46.623949 -14.951126 5.431030 1.630940 
-0.913023 -0.232978 0.978441 177.049772 2.085959 90.075854 12.081164 3.740359 -3.209947 -2.248266 -0.343486 8.477621 0.818189 4.647283 -11.348388 0.000000 -0.000000 0.000000 -7.392748 -7.345153 -8.746222 -0.911777 -8.405532 19.969530 4.989987 -1.644573 -10.203029 0.000000 -0.000000 0.000000 2.849182 1.353099 8.359875 3.972209 -2.063184 -0.420643 -0.766496 2.287143 -5.471498 1.289089 2.672469 -11.937036 1.517145 -5.528045 8.279912 -24.899397 -20.318987 0.888078 -51.509229 -23.419209 14.679271 35.011202 -69.514427 -25.468970 23.345030 0.130375 -20.014606 22.505509 23.948210 4.320114 51.883641 26.614157 13.624717 -65.405656 58.725763 -46.632102 -14.984920 5.405156 1.615687 
-0.913021 -0.232976 0.978441 177.049494 2.085796 90.075721 12.081138 3.740611 -3.209801 -2.248344 -0.343764 8.477684 0.817820 4.647484 -11.348285 0.000000 -0.000000 0.000000 -7.392821 -7.344881 -8.746163 -0.911628 -8.405011 19.969373 4.990318 -1.645115 -10.202602 0.000000 -0.000000 0.000000 2.849446 1.352925 8.360569 3.971723 -2.063196 -0.420607 -0.766615 2.287177 -5.471941 1.288617 2.672563 -11.936979 1.517014 -5.528246 8.280270 -24.900000 -20.322105 0.887900 -51.506887 -23.421126 14.677906 35.006225 -69.508376 -25.467627 23.346095 0.131096 -20.013101 22.505169 23.951262 4.320286 51.881994 26.616676 13.624278 -65.399920 58.722996 -46.630139 -14.988767 5.402102 1.613494 
-0.911549 -0.234244 0.978267 176.741123 1.995358 90.219055 12.115978 3.941953 -3.549316 -2.330828 -0.267849 8.809645 0.526545 4.681117 -11.357186 0.000000 -0.000000 0.000000 -7.312478 -6.880424 -9.312449 -0.912199 -8.177204 20.390942 4.791435 -2.102507 -10.299440 0.000000 -0.000000 0.000000 2.815151 1.067349 8.872770 3.666827 -2.156626 -0.228809 -0.868003 2.435504 -5.959078 0.875836 2.926613 -12.375609 1.452327 -5.609327 8.668778 -25.391119 -23.118637 1.075659 -48.994200 -25.040539 13.587991 32.563444 -64.154419 -25.279571 23.007700 -0.386144 -18.944065 22.793696 26.900623 4.699031 49.672133 29.537249 12.033961 -57.927867 54.256515 -41.373132 -14.336324 5.613063 1.244836 
-0.911484 -0.233816 0.978217 176.738409 1.996364 90.224235 12.117748 3.944514 -3.551491 -2.332868 -0.270657 8.812833 0.524120 4.684213 -11.358457 0.000000 -0.000000 0.000000 -7.311874 -6.876297 -9.313858 -0.909582 -8.172233 20.389327 4.793824 -2.109421 -10.296628 0.000000 -0.000000 0.000000 2.813630 1.061603 8.883387 3.665106 -2.159978 -0.226267 -0.868359 2.431643 -5.959193 0.876094 2.931421 -12.376071 1.451333 -5.605590 8.664506 -25.395938 -23.135814 1.075450 -48.974670 -25.045313 13.580646 32.552972 -64.138724 -25.275394 23.022509 -0.377446 -18.925744 22.796594 26.919023 4.702883 49.656102 29.552704 12.033285 -57.886981 54.248860 -41.362838 -14.385061 5.576252 1.223145 
-0.911467 -0.233678 0.978195 176.737047 1.997200 90.225810 12.119254 3.946589 -3.553014 -2.334171 -0.272335 8.816071 0.521565 4.685783 -11.360029 0.000000 -0.000000 0.000000 -7.311484 -6.873100 -9.314807 -0.907391 -8.168720 20.389067 4.795572 -2.113882 -10.295062 0.000000 -0.000000 0.000000 2.814018 1.056626 8.892327 3.663428 -2.162284 -0.224895 -0.869071 2.429417 -5.960404 0.876222 2.936493 -12.379072 1.450681 -5.600396 8.662664 -25.399885 -23.152176 1.075989 -48.955083 -25.050333 13.572632 32.549098 -64.119398 -25.273936 23.023992 -0.378954 -18.910833 22.799837 26.937030 4.707143 49.638474 29.567503 12.026109 -57.836194 54.229081 -41.336158 -14.409405 5.559095 1.211698 
-0.911466 -0.233646 0.978188 176.736089 1.997833 90.225796 12.120108 3.947826 -3.553965 -2.334860 -0.273555 8.818519 0.519692 4.686669 -11.361414 0.000000 -0.000000 0.000000 -7.311093 -6.870648 -9.315627 -0.906290 -8.166133 20.389641 4.796728 -2.116864 -10.294496 0.000000 -0.000000 0.000000 2.815537 1.052912 8.899948 3.661422 -2.163375 -0.224063 -0.870069 2.428551 -5.962122 0.875131 2.940980 -12.382574 1.450273 -5.595783 8.662155 -25.402932 -23.167246 1.076656 -48.939289 -25.056424 13.565432 32.547887 -64.098990 -25.274916 23.020331 -0.383395 -18.899567 22.801443 26.953083 4.710593 49.623463 29.579601 12.017560 -57.790986 54.206615 -41.308841 -14.418925 5.548194 1.205457 
-0.912426 -0.235349 0.977998 176.587204 2.104686 90.216168 12.228880 3.992237 -3.833898 -2.445230 -0.361262 9.231675 0.298457 4.794578 -11.610858 0.000000 -0.000000 0.000000 -7.211034 -6.345012 -9.572543 -0.762594 -7.680560 20.536931 4.984244 -2.810693 -10.264647 0.000000 -0.000000 0.000000 3.104916 0.346294 10.100413 3.204018 -2.224712 -0.020509 -1.061829 2.420693 -6.290030 0.544992 3.681815 -13.360719 1.391123 -4.682852 8.935112 -25.981280 -26.033713 1.362650 -45.978113 -26.594126 12.251597 32.287310 -59.563591 -25.459032 21.250946 -2.165423 -17.548339 23.174326 30.026860 5.403638 46.333014 32.000156 9.655240 -49.052684 48.396116 -35.490223 -13.727712 5.767576 0.739794 
-0.912457 -0.234755 0.978034 176.582121 2.105712 90.224594 12.227483 3.993799 -3.833587 -2.445646 -0.365490 9.232708 0.296880 4.799819 -11.611176 0.000000 -0.000000 0.000000 -7.210710 -6.342937 -9.573536 -0.761316 -7.672294 20.534008 4.987367 -2.818979 -10.261371 0.000000 -0.000000 0.000000 3.103784 0.341738 10.116008 3.198171 -2.227122 -0.015981 -1.061536 2.421067 -6.291184 0.539028 3.682715 -13.358461 1.389881 -4.675863 8.932721 -25.985487 -26.063998 1.358658 -45.954600 -26.613752 12.240942 32.246224 -59.521598 -25.449062 21.272996 -2.154776 -17.528347 23.175546 30.055160 5.409727 46.297769 32.014478 9.642990 -49.000091 48.373121 -35.480746 -13.759675 5.730547 0.723926 
-0.912470 -0.234730 0.978040 176.580020 2.105808 90.225871 12.226331 3.994683 -3.834678 -2.445357 -0.367577 9.233304 0.295949 4.802715 -11.611345 0.000000 -0.000000 0.000000 -7.210645 -6.342165 -9.575245 -0.760184 -7.668060 20.532570 4.988796 -2.822716 -10.259708 0.000000 -0.000000 0.000000 3.104831 0.340028 10.120824 3.195619 -2.227891 -0.015150 -1.060736 2.422392 -6.292040 0.535323 3.683109 -13.357576 1.389381 -4.670215 8.931149 -25.985096 -26.079329 1.356993 -45.941202 -26.622645 12.234407 32.224365 -59.496368 -25.441652 21.281513 -2.151726 -17.517934 23.174312 30.070057 5.413094 46.277513 32.022426 9.633480 -48.968919 48.358335 -35.469857 -13.772304 5.719043 0.716675 
-0.915031 -0.235666 0.979231 176.177937 2.159348 90.517378 12.001829 4.107052 -4.196189 -2.321399 -0.618837 9.350277 0.147222 5.277312 -11.628488 0.000000 -0.000000 0.000000 -7.181555 -6.211227 -10.026173 -0.510362 -6.904168 20.279713 5.277495 -3.539200 -9.940742 0.000000 -0.000000 0.000000 3.391896 -0.002397 10.892919 2.670436 -2.347160 0.153835 -0.883436 2.709537 -6.455040 -0.219631 3.574274 -13.496847 1.301971 -3.302379 8.829695 -25.221491 -28.920307 1.045816 -43.468484 -27.976378 11.066433 29.219187 -54.768974 -24.248656 21.868860 -2.543146 -15.922661 22.536331 32.785693 5.889390 42.386227 33.469992 7.220207 -43.333714 45.167811 -32.635691 -13.533522 5.632960 0.185604 
-0.915038 -0.235688 0.979233 176.173034 2.159604 90.518258 12.000766 4.110429 -4.197290 -2.321385 -0.621039 9.350864 0.145720 5.280643 -11.628944 0.000000 -0.000000 0.000000 -7.180180 -6.209557 -10.029876 -0.510184 -6.897958 20.278122 5.279463 -3.543035 -9.938647 0.000000 -0.000000 0.000000 3.394641 -0.002528 10.900791 2.667368 -2.346467 0.153955 -0.882158 2.710181 -6.457274 -0.225652 3.575343 -13.493274 1.302176 -3.295877 8.823051 -25.211734 -28.941021 1.043083 -43.447533 -27.976251 11.057246 29.197292 -54.742577 -24.233619 21.876931 -2.544573 -15.902812 22.523621 32.801773 5.889067 42.367227 33.475395 7.207830 -43.315146 45.168324 -32.635967 -13.547634 5.613655 0.163066 
-0.916716 -0.238161 0.979774 175.424821 2.194527 90.768963 11.874355 4.509076 -4.376751 -2.407018 -0.728214 9.315980 -0.022003 5.780283 -11.587078 0.000000 -0.000000 0.000000 -6.974471 -5.992590 -10.564558 -0.479471 -5.851261 19.936167 5.542862 -4.143645 -9.562916 0.000000 -0.000000 0.000000 3.701752 -0.039827 11.870403 2.124223 -2.228539 0.309761 -0.716536 3.056071 -6.725592 -0.871926 3.510412 -13.003477 1.514149 -2.328350 8.202784 -23.391458 -31.906639 0.408636 -40.686972 -28.360730 10.131850 26.277703 -50.533234 -21.939403 21.590250 -3.300000 -14.259799 20.535233 35.282846 5.628541 39.095358 34.479878 4.762035 -39.156470 43.154992 -30.651650 -12.890976 4.993589 -2.418967 
